#!OML:ASF I:\golf\golf\golf 2\Subject 1\2002-09-07\Subject1.ASF
:FULLY-SPECIFIED
:DEGREES
304
root -8.88404 17.9824 5.47319 -106.825 86.2435 -121.689
lowerback 4.96185 1.65875 0.559149
upperback 5.76295 2.37568 4.61119
thorax 2.99989 1.21403 4.41143
lowerneck -11.517 0.397682 3.82834
upperneck 43.8053 4.65949 -4.6059
head 18.7585 2.71404 -1.78191
rclavicle -4.37326e-015 -3.18055e-015
rhumerus -19.2067 44.308 -99.1228
rradius 55.8047
rwrist -62.8117
rhand -38.5273 -18.4141
rfingers 7.12502
rthumb -11.5478 -48.076
lclavicle -4.37326e-015 -3.18055e-015
lhumerus -16.7902 -48.4028 105.971
lradius 53.4224
lwrist 63.4648
lhand -11.5762 65.5054
lfingers 7.12502
lthumb -165.535 85.0188
rfemur -26.9431 -2.47135 14.2039
rtibia 25.5872
rfoot -6.99308 -8.29834
rtoes -5.62341
lfemur -28.7913 2.3478 -10.8151
ltibia 26.0607
lfoot -10.6433 -7.38063
ltoes -15.3308
305
root -8.88324 17.9834 5.47152 -107.691 86.1966 -122.527
lowerback 4.98053 1.66657 0.582571
upperback 5.77477 2.38799 4.61624
thorax 3.00162 1.22135 4.40289
lowerneck -11.5783 0.456982 3.94326
upperneck 43.8509 4.75253 -4.66069
head 18.8189 2.76426 -1.81215
rclavicle 1.19271e-014 2.38542e-014
rhumerus -19.1866 44.2996 -99.0849
rradius 55.822
rwrist -62.8492
rhand -38.5239 -18.3277
rfingers 7.12502
rthumb -11.5446 -47.9897
lclavicle 1.19271e-014 2.38542e-014
lhumerus -16.7065 -48.2571 105.956
lradius 53.3529
lwrist 63.5438
lhand -10.7594 65.1916
lfingers 7.12502
lthumb -164.748 85.3907
rfemur -26.8882 -2.54471 14.2304
rtibia 25.5711
rfoot -7.04368 -8.29509
rtoes -5.13942
lfemur -28.7689 2.27646 -10.7918
ltibia 26.0496
lfoot -10.6373 -7.38169
ltoes -15.2993
306
root -8.88188 17.9835 5.46812 -108.363 86.1188 -123.248
lowerback 4.9188 1.69515 0.717304
upperback 5.74896 2.42703 4.57347
thorax 3.01305 1.24577 4.28238
lowerneck -11.6371 0.473684 4.05544
upperneck 43.8992 4.74027 -4.62852
head 18.8675 2.7836 -1.81932
rclavicle 4.13472e-014 6.67916e-014
rhumerus -19.2466 44.1331 -99.1106
rradius 55.8649
rwrist -62.7946
rhand -38.5697 -18.4259
rfingers 7.12502
rthumb -11.5887 -48.0855
lclavicle 4.13472e-014 6.67916e-014
lhumerus -16.7296 -48.1767 105.998
lradius 53.299
lwrist 63.5077
lhand -11.9525 65.7369
lfingers 7.12502
lthumb -165.897 84.7617
rfemur -26.905 -2.65668 14.2893
rtibia 25.5455
rfoot -7.13124 -8.2364
rtoes -4.35587
lfemur -28.8318 2.23322 -10.7456
ltibia 26.0541
lfoot -10.6527 -7.38917
ltoes -15.373
307
root -8.88111 17.9825 5.46626 -108.433 86.0317 -123.37
lowerback 4.85765 1.75366 0.893361
upperback 5.71998 2.50672 4.51597
thorax 3.02072 1.29215 4.12214
lowerneck -11.6117 0.48504 4.15286
upperneck 43.8305 4.69463 -4.57701
head 18.8125 2.78748 -1.81973
rclavicle 3.37934e-014 4.69132e-014
rhumerus -19.2411 43.9962 -99.1101
rradius 55.9186
rwrist -62.8846
rhand -38.7113 -18.5918
rfingers 7.12502
rthumb -11.7253 -48.2437
lclavicle 3.37934e-014 4.69132e-014
lhumerus -16.8005 -48.3437 106.031
lradius 53.2808
lwrist 63.5167
lhand -10.9174 65.5961
lfingers 7.12502
lthumb -164.9 84.9747
rfemur -26.9363 -2.71438 14.3688
rtibia 25.5207
rfoot -7.17602 -8.18256
rtoes -4.01883
lfemur -28.899 2.23839 -10.6749
ltibia 26.0617
lfoot -10.6684 -7.4059
ltoes -15.6302
308
root -8.88056 17.9823 5.4652 -109.045 85.944 -123.95
lowerback 4.89476 1.75587 0.967928
upperback 5.719 2.51397 4.52768
thorax 3.00105 1.29896 4.0907
lowerneck -11.5333 0.54667 4.216
upperneck 43.7071 4.7688 -4.61352
head 18.7212 2.82058 -1.83413
rclavicle 3.97569e-016 -1.19271e-014
rhumerus -19.1872 44.0912 -99.0726
rradius 55.9187
rwrist -63.0801
rhand -38.8973 -18.6698
rfingers 7.12502
rthumb -11.9047 -48.3114
lclavicle 3.97569e-016 -1.19271e-014
lhumerus -16.7645 -48.3146 106.005
lradius 53.2915
lwrist 63.713
lhand -10.3909 65.5226
lfingers 7.12502
lthumb -164.393 85.087
rfemur -26.8759 -2.7382 14.4243
rtibia 25.5041
rfoot -7.16927 -8.21109
rtoes -3.957
lfemur -28.8877 2.16182 -10.606
ltibia 26.0741
lfoot -10.7194 -7.38021
ltoes -15.9044
309
root -8.88029 17.9822 5.46451 -110.22 85.8934 -125.077
lowerback 4.95443 1.68908 0.914016
upperback 5.72698 2.42732 4.58745
thorax 2.97724 1.25385 4.18395
lowerneck -11.4765 0.659801 4.1555
upperneck 43.6508 4.95645 -4.60945
head 18.6835 2.88404 -1.7862
rclavicle -4.29375e-014 -5.24792e-014
rhumerus -19.2267 44.3901 -99.0618
rradius 55.9293
rwrist -63.1562
rhand -39.0377 -18.6977
rfingers 7.12502
rthumb -12.04 -48.3313
lclavicle -4.29375e-014 -5.24792e-014
lhumerus -16.6577 -48.0688 105.961
lradius 53.2805
lwrist 63.8972
lhand -10.8314 65.4555
lfingers 7.12502
lthumb -164.817 85.1215
rfemur -26.7995 -2.75712 14.4261
rtibia 25.4917
rfoot -7.0982 -8.28302
rtoes -4.43823
lfemur -28.8638 2.05437 -10.5875
ltibia 26.0834
lfoot -10.7363 -7.36439
ltoes -15.6417
310
root -8.88026 17.9819 5.46317 -111.498 85.8309 -126.351
lowerback 4.9609 1.55978 0.827367
upperback 5.73342 2.25496 4.69929
thorax 2.98487 1.16379 4.35488
lowerneck -11.4482 0.837399 3.92372
upperneck 43.6435 5.28704 -4.55888
head 18.6889 2.98174 -1.65845
rclavicle 2.38542e-015 -3.89618e-014
rhumerus -19.3572 44.8761 -99.0532
rradius 56.0175
rwrist -63.1709
rhand -39.1123 -18.771
rfingers 7.12502
rthumb -12.112 -48.4005
lclavicle 2.38542e-015 -3.89618e-014
lhumerus -16.519 -47.658 105.938
lradius 53.2432
lwrist 63.8847
lhand -11.5405 65.6053
lfingers 7.12502
lthumb -165.5 84.9214
rfemur -26.7668 -2.80819 14.4397
rtibia 25.4835
rfoot -7.03728 -8.36623
rtoes -5.238
lfemur -28.8916 2.03117 -10.5879
ltibia 26.0819
lfoot -10.715 -7.45035
ltoes -15.6099
311
root -8.88013 17.9823 5.46084 -112.675 85.7787 -127.525
lowerback 4.9704 1.42258 0.736738
upperback 5.73403 2.07203 4.81052
thorax 2.98671 1.06823 4.52771
lowerneck -11.4325 1.00982 3.72662
upperneck 43.6602 5.65551 -4.61939
head 18.7224 3.0874 -1.58334
rclavicle -1.51076e-014 -1.19271e-014
rhumerus -19.5308 45.3673 -99.0617
rradius 56.1546
rwrist -63.2474
rhand -39.1854 -18.8835
rfingers 7.12502
rthumb -12.1825 -48.5087
lclavicle -1.51076e-014 -1.19271e-014
lhumerus -16.3907 -47.0982 105.937
lradius 53.1833
lwrist 63.5903
lhand -10.4927 65.0005
lfingers 7.12502
lthumb -164.491 85.6015
rfemur -26.7382 -2.85064 14.4292
rtibia 25.4872
rfoot -7.09077 -8.42199
rtoes -4.79488
lfemur -28.9106 1.99209 -10.5997
ltibia 26.0759
lfoot -10.7176 -7.48648
ltoes -16.2693
312
root -8.88035 17.9828 5.45926 -113.46 85.7495 -128.303
lowerback 5.00012 1.38798 0.692877
upperback 5.72395 2.02668 4.84782
thorax 2.96042 1.04398 4.59167
lowerneck -11.4082 1.08263 3.69433
upperneck 43.6669 5.82699 -4.70087
head 18.7378 3.14174 -1.58464
rclavicle -2.54444e-014 -5.725e-014
rhumerus -19.5954 45.5095 -99.0481
rradius 56.2201
rwrist -63.3703
rhand -39.2758 -18.9144
rfingers 7.12502
rthumb -12.2696 -48.5344
lclavicle -2.54444e-014 -5.725e-014
lhumerus -16.3308 -46.8659 105.961
lradius 53.0757
lwrist 63.3252
lhand -10.4593 65.2797
lfingers 7.12502
lthumb -164.459 85.3248
rfemur -26.7147 -2.84938 14.4008
rtibia 25.4962
rfoot -7.18636 -8.44012
rtoes -3.57328
lfemur -28.9201 1.9378 -10.6075
ltibia 26.0765
lfoot -10.7263 -7.49945
ltoes -16.5901
313
root -8.87996 17.9824 5.4583 -114.608 85.7328 -129.455
lowerback 4.99826 1.41077 0.669371
upperback 5.72051 2.05629 4.83821
thorax 2.95518 1.05808 4.59396
lowerneck -11.3838 1.10126 3.70797
upperneck 43.6117 5.84792 -4.70607
head 18.6981 3.15197 -1.58515
rclavicle 4.77083e-014 5.725e-014
rhumerus -19.5446 45.4411 -98.9716
rradius 56.2089
rwrist -63.4283
rhand -39.3596 -18.8635
rfingers 7.12502
rthumb -12.3504 -48.4787
lclavicle 4.77083e-014 5.725e-014
lhumerus -16.3248 -46.9922 105.981
lradius 53.0422
lwrist 63.406
lhand -9.9416 64.9084
lfingers 7.12502
lthumb -163.96 85.7356
rfemur -26.7001 -2.9126 14.363
rtibia 25.5045
rfoot -7.18619 -8.45243
rtoes -3.47594
lfemur -28.9472 1.86675 -10.6358
ltibia 26.0846
lfoot -10.6847 -7.57399
ltoes -16.1758
314
root -8.87862 17.9813 5.45787 -115.426 85.6996 -130.296
lowerback 4.97203 1.43248 0.690627
upperback 5.71199 2.08446 4.81164
thorax 2.96029 1.073 4.55379
lowerneck -11.3547 1.12531 3.78286
upperneck 43.5295 5.8452 -4.70328
head 18.6399 3.16232 -1.59762
rclavicle 2.62396e-014 -2.06736e-014
rhumerus -19.5501 45.3697 -98.9388
rradius 56.2367
rwrist -63.3312
rhand -39.2947 -18.8526
rfingers 7.12502
rthumb -12.2878 -48.4716
lclavicle 2.62396e-014 -2.06736e-014
lhumerus -16.3804 -47.1432 105.987
lradius 53.0777
lwrist 63.5051
lhand -10.2058 65.3507
lfingers 7.12502
lthumb -164.215 85.2729
rfemur -26.7095 -2.97375 14.3606
rtibia 25.5193
rfoot -7.1687 -8.4707
rtoes -3.82277
lfemur -28.991 1.83606 -10.6421
ltibia 26.1049
lfoot -10.6573 -7.64719
ltoes -15.8744
315
root -8.87752 17.9804 5.45792 -115.045 85.6237 -129.927
lowerback 4.97163 1.43937 0.753761
upperback 5.6926 2.0957 4.81527
thorax 2.94135 1.08102 4.52092
lowerneck -11.3114 1.18305 3.9188
upperneck 43.494 5.92883 -4.78568
head 18.6224 3.20823 -1.6467
rclavicle 5.1684e-015 -6.36111e-015
rhumerus -19.6096 45.3742 -98.9978
rradius 56.2848
rwrist -63.2631
rhand -39.1211 -18.9186
rfingers 7.12502
rthumb -12.1204 -48.5475
lclavicle 5.1684e-015 -6.36111e-015
lhumerus -16.4469 -47.1626 105.98
lradius 53.0835
lwrist 63.4464
lhand -10.4662 65.5292
lfingers 7.12502
lthumb -164.465 85.0748
rfemur -26.7292 -2.97943 14.4504
rtibia 25.5436
rfoot -7.22332 -8.50186
rtoes -3.90806
lfemur -29.0168 1.87863 -10.5665
ltibia 26.1337
lfoot -10.7323 -7.66654
ltoes -16.1787
316
root -8.87684 17.9795 5.45783 -114.685 85.5772 -129.569
lowerback 4.96945 1.4343 0.7437
upperback 5.68368 2.08921 4.85123
thorax 2.93232 1.0772 4.56435
lowerneck -11.2995 1.24626 3.99346
upperneck 43.5342 6.08951 -4.93193
head 18.6704 3.26917 -1.7008
rclavicle 0 2.38542e-015
rhumerus -19.664 45.4681 -99.0469
rradius 56.3439
rwrist -63.459
rhand -39.2407 -18.9019
rfingers 7.12502
rthumb -12.2357 -48.524
lclavicle 0 2.38542e-015
lhumerus -16.4784 -47.1341 105.993
lradius 53.1222
lwrist 63.4252
lhand -10.7312 65.3875
lfingers 7.12502
lthumb -164.721 85.1969
rfemur -26.7499 -3.0253 14.5201
rtibia 25.5728
rfoot -7.2731 -8.47953
rtoes -4.02548
lfemur -29.029 1.89142 -10.5118
ltibia 26.1616
lfoot -10.8046 -7.64985
ltoes -16.4147
317
root -8.87677 17.9783 5.45783 -115.221 85.5593 -130.123
lowerback 4.94055 1.43604 0.695965
upperback 5.67833 2.08919 4.86583
thorax 2.9409 1.07511 4.6075
lowerneck -11.2965 1.28879 4.04656
upperneck 43.59 6.21037 -5.03581
head 18.7246 3.3168 -1.73795
rclavicle -3.57812e-014 -9.78021e-014
rhumerus -19.6916 45.4755 -99.069
rradius 56.3743
rwrist -63.7155
rhand -39.5494 -18.6963
rfingers 7.12502
rthumb -12.5333 -48.3004
lclavicle -3.57812e-014 -9.78021e-014
lhumerus -16.4988 -47.1408 106.03
lradius 53.1923
lwrist 63.4667
lhand -10.8779 65.2753
lfingers 7.12502
lthumb -164.862 85.2983
rfemur -26.7781 -3.11658 14.5289
rtibia 25.6027
rfoot -7.28632 -8.41892
rtoes -3.96557
lfemur -29.0685 1.85291 -10.5094
ltibia 26.1799
lfoot -10.7939 -7.6864
ltoes -16.0757
